<svg width="29" height="29" viewBox="0 0 29 29" fill="none" xmlns="http://www.w3.org/2000/svg">
<rect width="29" height="29" rx="7" fill="#3D3D4F"/>
<path d="M15.21 14.4493C15.2764 14.3822 15.3552 14.329 15.442 14.2926C15.5288 14.2563 15.6218 14.2376 15.7158 14.2376C15.8098 14.2376 15.9029 14.2563 15.9897 14.2926C16.0765 14.329 16.1553 14.3822 16.2216 14.4493L19.2856 17.5381L19.2856 8.71986C19.2856 8.52894 19.3608 8.34584 19.4947 8.21084C19.6287 8.07584 19.8103 8 19.9997 8C20.189 8 20.3707 8.07584 20.5046 8.21084C20.6385 8.34584 20.7137 8.52894 20.7137 8.71986L20.7137 17.5381L23.7789 14.4493C23.913 14.3141 24.095 14.2381 24.2847 14.2381C24.4744 14.2381 24.6563 14.3141 24.7905 14.4493C24.9246 14.5846 25 14.768 25 14.9592C25 15.1505 24.9246 15.3339 24.7905 15.4691L20.5061 19.7883C20.4397 19.8554 20.3609 19.9086 20.2741 19.945C20.1873 19.9813 20.0942 20 20.0003 20C19.9063 20 19.8132 19.9813 19.7264 19.945C19.6396 19.9086 19.5608 19.8554 19.4945 19.7883L15.21 15.4691C15.1435 15.4022 15.0906 15.3228 15.0546 15.2353C15.0186 15.1478 15 15.054 15 14.9592C15 14.8645 15.0186 14.7707 15.0546 14.6832C15.0906 14.5957 15.1435 14.5162 15.21 14.4493Z" fill="#2CB48E"/>
<path d="M13.79 13.5507C13.7236 13.6178 13.6448 13.671 13.558 13.7074C13.4712 13.7437 13.3782 13.7624 13.2842 13.7624C13.1902 13.7624 13.0971 13.7437 13.0103 13.7074C12.9235 13.671 12.8447 13.6178 12.7784 13.5507L9.71441 10.4619L9.71441 19.2801C9.71441 19.4711 9.63918 19.6542 9.50526 19.7892C9.37135 19.9242 9.18972 20 9.00034 20C8.81095 20 8.62933 19.9242 8.49541 19.7892C8.3615 19.6542 8.28627 19.4711 8.28627 19.2801L8.28627 10.4619L5.22111 13.5507C5.08696 13.6859 4.90502 13.7619 4.71531 13.7619C4.5256 13.7619 4.34366 13.6859 4.20951 13.5507C4.07536 13.4154 4 13.232 4 13.0408C4 12.8495 4.07536 12.6661 4.20951 12.5309L8.49394 8.21173C8.56028 8.14462 8.63911 8.09137 8.72591 8.05504C8.8127 8.0187 8.90576 8 8.99974 8C9.09372 8 9.18678 8.0187 9.27358 8.05504C9.36038 8.09137 9.4392 8.14462 9.50554 8.21173L13.79 12.5309C13.8565 12.5978 13.9094 12.6772 13.9454 12.7647C13.9814 12.8522 14 12.946 14 13.0408C14 13.1355 13.9814 13.2293 13.9454 13.3168C13.9094 13.4043 13.8565 13.4838 13.79 13.5507Z" fill="#2CB48E"/>
</svg>
